<?xml version="1.0" encoding="UTF-8"?>
<svg xmlns="http://www.w3.org/2000/svg" viewBox="0 0 800 600" width="800" height="600" role="img" aria-label="Step 2: Identify equipment">
  <rect width="800" height="600" fill="#1E2761"/>
  <rect x="20" y="20" width="760" height="560" fill="none" stroke="#CADCFC" stroke-width="2" rx="8"/>
  <text x="50" y="90" font-family="Inter, sans-serif" font-size="42" font-weight="800" fill="#CADCFC" letter-spacing="4">STEP 2</text>
  <text x="50" y="540" font-family="Inter, sans-serif" font-size="36" font-weight="700" fill="#F5F1EA" letter-spacing="2">IDENTIFY EQUIPMENT</text>
  <text x="50" y="580" font-family="Inter, monospace" font-size="11" font-weight="500" fill="#6B7689" letter-spacing="1.5">REFERENCE · DAC #811 · GENESIS-RENDERED</text>

  <!-- Baseplate stand-in -->
  <rect x="200" y="190" width="400" height="260" fill="#3A4763" stroke="#CADCFC" stroke-width="3" rx="6"/>
  <text x="400" y="225" font-family="Inter, monospace" font-size="13" fill="#A6AFC2" text-anchor="middle">DAC-811-01</text>

  <!-- Stylized QR (random-looking module grid) -->
  <g transform="translate(310 245)">
    <rect width="180" height="180" fill="#F5F1EA"/>
    <!-- corner finder patterns -->
    <rect x="8" y="8" width="36" height="36" fill="#1E2761"/>
    <rect x="16" y="16" width="20" height="20" fill="#F5F1EA"/>
    <rect x="20" y="20" width="12" height="12" fill="#1E2761"/>
    <rect x="136" y="8" width="36" height="36" fill="#1E2761"/>
    <rect x="144" y="16" width="20" height="20" fill="#F5F1EA"/>
    <rect x="148" y="20" width="12" height="12" fill="#1E2761"/>
    <rect x="8" y="136" width="36" height="36" fill="#1E2761"/>
    <rect x="16" y="144" width="20" height="20" fill="#F5F1EA"/>
    <rect x="20" y="148" width="12" height="12" fill="#1E2761"/>
    <!-- payload modules -->
    <g fill="#1E2761">
      <rect x="56" y="8" width="8" height="8"/><rect x="72" y="8" width="8" height="8"/><rect x="96" y="8" width="8" height="8"/><rect x="120" y="8" width="8" height="8"/>
      <rect x="56" y="24" width="8" height="8"/><rect x="80" y="24" width="8" height="8"/><rect x="104" y="24" width="8" height="8"/>
      <rect x="64" y="40" width="8" height="8"/><rect x="88" y="40" width="8" height="8"/><rect x="120" y="40" width="8" height="8"/>
      <rect x="56" y="56" width="8" height="8"/><rect x="80" y="56" width="8" height="8"/><rect x="96" y="56" width="8" height="8"/><rect x="112" y="56" width="8" height="8"/><rect x="128" y="56" width="8" height="8"/>
      <rect x="48" y="72" width="8" height="8"/><rect x="72" y="72" width="8" height="8"/><rect x="104" y="72" width="8" height="8"/><rect x="136" y="72" width="8" height="8"/>
      <rect x="56" y="88" width="8" height="8"/><rect x="88" y="88" width="8" height="8"/><rect x="120" y="88" width="8" height="8"/>
      <rect x="48" y="104" width="8" height="8"/><rect x="80" y="104" width="8" height="8"/><rect x="96" y="104" width="8" height="8"/><rect x="112" y="104" width="8" height="8"/>
      <rect x="56" y="120" width="8" height="8"/><rect x="72" y="120" width="8" height="8"/><rect x="128" y="120" width="8" height="8"/>
      <rect x="64" y="136" width="8" height="8"/><rect x="96" y="136" width="8" height="8"/><rect x="120" y="136" width="8" height="8"/>
      <rect x="56" y="152" width="8" height="8"/><rect x="88" y="152" width="8" height="8"/><rect x="112" y="152" width="8" height="8"/><rect x="136" y="152" width="8" height="8"/>
    </g>
  </g>

  <text x="400" y="490" font-family="Inter, sans-serif" font-size="16" fill="#A6AFC2" text-anchor="middle">Scan the QR code on the baseplate</text>
</svg>
