<?xml version="1.0" encoding="UTF-8"?>
<svg xmlns="http://www.w3.org/2000/svg" viewBox="0 0 800 600" width="800" height="600" role="img" aria-label="Step 1: Don PPE">
  <rect width="800" height="600" fill="#1E2761"/>
  <rect x="20" y="20" width="760" height="560" fill="none" stroke="#CADCFC" stroke-width="2" rx="8"/>
  <text x="50" y="90" font-family="Inter, Trebuchet MS, sans-serif" font-size="42" font-weight="800" fill="#CADCFC" letter-spacing="4">STEP 1</text>
  <text x="50" y="540" font-family="Inter, Trebuchet MS, sans-serif" font-size="36" font-weight="700" fill="#F5F1EA" letter-spacing="2">DON PPE</text>
  <text x="50" y="580" font-family="Inter, monospace" font-size="11" font-weight="500" fill="#6B7689" letter-spacing="1.5">REFERENCE · DAC #811 · GENESIS-RENDERED</text>

  <!-- Safety glasses -->
  <g transform="translate(400 220)">
    <ellipse cx="-80" cy="0" rx="70" ry="50" fill="none" stroke="#CADCFC" stroke-width="6"/>
    <ellipse cx="80" cy="0" rx="70" ry="50" fill="none" stroke="#CADCFC" stroke-width="6"/>
    <line x1="-10" y1="0" x2="10" y2="0" stroke="#CADCFC" stroke-width="6"/>
    <line x1="-150" y1="0" x2="-200" y2="-15" stroke="#CADCFC" stroke-width="5"/>
    <line x1="150" y1="0" x2="200" y2="-15" stroke="#CADCFC" stroke-width="5"/>
    <ellipse cx="-80" cy="0" rx="58" ry="38" fill="#5BA8D6" opacity="0.35"/>
    <ellipse cx="80" cy="0" rx="58" ry="38" fill="#5BA8D6" opacity="0.35"/>
  </g>

  <!-- Glove (left) -->
  <g transform="translate(220 380)" stroke="#CADCFC" stroke-width="4" fill="#B85042">
    <path d="M-50 60 L-50 -40 Q-50 -55 -35 -55 L-35 30 L-25 30 L-25 -70 Q-25 -85 -10 -85 L-10 30 L0 30 L0 -75 Q0 -90 15 -90 L15 30 L25 30 L25 -65 Q25 -80 40 -80 L40 30 L50 30 L50 -30 Q50 -40 60 -40 L60 60 Z"/>
  </g>

  <!-- Glove (right) -->
  <g transform="translate(580 380) scale(-1 1)" stroke="#CADCFC" stroke-width="4" fill="#B85042">
    <path d="M-50 60 L-50 -40 Q-50 -55 -35 -55 L-35 30 L-25 30 L-25 -70 Q-25 -85 -10 -85 L-10 30 L0 30 L0 -75 Q0 -90 15 -90 L15 30 L25 30 L25 -65 Q25 -80 40 -80 L40 30 L50 30 L50 -30 Q50 -40 60 -40 L60 60 Z"/>
  </g>

  <text x="400" y="490" font-family="Inter, sans-serif" font-size="16" fill="#A6AFC2" text-anchor="middle">Safety glasses + gloves required</text>
</svg>
